<svg xmlns="http://www.w3.org/2000/svg" xmlns:xlink="http://www.w3.org/1999/xlink" width="3763.447" height="1263.693" viewBox="0 0 3763.447 1263.693">
  <defs>
    <linearGradient id="linear-gradient" x1="-0.122" y1="-0.49" x2="0.413" y2="0.934" gradientUnits="objectBoundingBox">
      <stop offset="0" stop-color="#0f4"/>
      <stop offset="1" stop-color="#00e1ff"/>
    </linearGradient>
    <linearGradient id="linear-gradient-2" x1="0.029" y1="-1.021" x2="0.768" y2="1" gradientUnits="objectBoundingBox">
      <stop offset="0" stop-color="#2cf19a"/>
      <stop offset="1" stop-color="#0ce1fd"/>
    </linearGradient>
    <linearGradient id="linear-gradient-3" x1="0.023" y1="-1.277" x2="1" y2="1" gradientUnits="objectBoundingBox">
      <stop offset="0" stop-color="#42efa3"/>
      <stop offset="1" stop-color="#00e2fd"/>
    </linearGradient>
  </defs>
  <g id="Group_51" data-name="Group 51" transform="translate(4709.731 -7514.281)">
    <g id="Group_21" data-name="Group 21" transform="translate(-2397.2 8124)">
      <g id="Group_2" data-name="Group 2" transform="matrix(0.985, -0.174, 0.174, 0.985, -1447.021, -48.542)">
        <g id="Group_1" data-name="Group 1" transform="translate(-511.651 -348.7)">
          <g id="Shape_11" data-name="Shape 11" transform="translate(0 0)">
            <path id="Path_1" data-name="Path 1" d="M209.04,784.523c22.3-15.571,47.284-31.814,55.2-57.832,7.513-24.694-2.677-50.931-12.7-74.717C201.33,532.82,160.284,358.026,129.212,223.3c67.881-2.89,125.529,45.425,179.168,106.321,27.551,39.2,32.148,58.97,34.6,78.546-.18,13-1.685,25.291,3.343,40.357,3.27,9.8,17.708,11.371,26.093,5.335s12.123-16.482,15.4-26.28l85.493-255.7c8.67-25.93,17.581-52.335,33.8-74.346,21.65-29.383,54.958-48.65,89.966-58.971s71.895-12.38,108.392-12.644L479.6,621.5c-21.028,55.448-42.085,110.963-67.387,164.6-25.613,54.291-56.6,107.825-103.078,145.81-60.09,49.106-140.713,67.23-218.3,65.773-3.043-.057-6.367-.248-8.63-2.283-2.563-2.3-2.881-6.152-2.911-9.6C78.564,902.686,140.9,832.109,209.04,784.523Z" transform="translate(-79.285 -25.924)" fill="url(#linear-gradient)"/>
          </g>
        </g>
        <g id="Isolation_Mode" data-name="Isolation Mode" transform="translate(-642.136 -676.839) rotate(8)">
          <g id="Group_35" data-name="Group 35" transform="translate(-101.009 -18.646) rotate(7)">
            <g id="Group_2-2" data-name="Group 2" transform="translate(42.732 353.592)">
              <g id="Group_1-2" data-name="Group 1" transform="translate(0 0)">
                <path id="Path_1-2" data-name="Path 1" d="M34.8,77.94c-1.406-1.84-3.274-3.677-4.679-5.518A167.441,167.441,0,0,1,15.345,51.017,211.6,211.6,0,0,1,0,17.11c13.868-2.9,27.516-4.64,42.318-6.62,22.209-2.507,42.568-4.536,64.547-6.811,28.462-2.33,54.609-4.639,83.1-3.269.464,0,.931.457,1.394.452l10.426.6c3.479.665,6.953.867,10.433,1.531,4.176.889,8.114,1.088,12.061,2.211a11.611,11.611,0,0,0,3.02,1.132A51.155,51.155,0,0,1,239.37,9.478c3.488,1.59,7.2,2.02,10.683,3.612a76.492,76.492,0,0,0,9.065,3.858c6.74,2.953,12.794,6.6,19.308,10.254a217.965,217.965,0,0,1,20.505,14.642,181.042,181.042,0,0,1,26.4,26.864c2.577,3.451,4.921,6.672,7.5,10.123.468.459.242,1.157.709,1.617,7.264,9.893,12.45,20.5,17.408,31.341A248.379,248.379,0,0,0,287.2,77.606c-2.09-.677-4.413-1.582-6.5-2.26a250.063,250.063,0,0,0-45.7-9.56,217.9,217.9,0,0,0-24.555-1.177c-14.356.124-27.54,1.86-42.338,4.3-1.157.241-2.086-.211-3.243.029a171.094,171.094,0,0,1-42.142.365c-.463,0-1.155.242-1.62.246-5.1-.42-9.5-1.075-14.605-1.957-3.479-.665-6.495-1.334-9.741-1.769-.7-.225-.93-.454-1.627-.681a207.572,207.572,0,0,1-36.451-11.03A228.95,228.95,0,0,0,183.43,74.338c9.724-.084,19.213-.861,29.179.211.463,0,1.156-.242,1.619-.246,12.979,1.276,24.338,2.8,36.87,5.932a244.927,244.927,0,0,1,49.486,18.791c.931.457,1.863,1.374,2.794,1.828,15.585,7.97,29.1,18.041,42.4,28.81-3.926,1.192-7.4.989-11.794,1.722a55.976,55.976,0,0,1-10.873,1.252c-3.008.256-5.782.745-8.557,1.23-25.215,2.766-48.354,4.819-73.35,6.426-21.294,1.11-40.965,2.438-62.041,1.926-.927.009-1.857-.446-2.783-.438-19.454-.294-37.542-3.379-56.342-8.541-20.661-6.074-38.573-15.412-56.049-28q-.7-.688-1.4-1.377A163.9,163.9,0,0,1,34.8,77.941Z" fill="#2cf19a"/>
              </g>
            </g>
            <g id="Group_4" data-name="Group 4" transform="translate(321.879 125.922)">
              <g id="Group_3" data-name="Group 3" transform="translate(0 0)">
                <path id="Path_2" data-name="Path 2" d="M64.264,28.678c-1.584-1.166-3.173-2.729-4.758-3.9a142.39,142.39,0,0,0-18.412-12.24A179.728,179.728,0,0,0,12.053,0c-2.259,11.829-3.537,23.453-5,36.062-1.8,18.91-3.228,36.245-4.836,54.957C.652,115.242-.927,137.5.659,161.694c0,.394.4.785.4,1.178q.334,4.426.668,8.851c.616,2.948.838,5.9,1.454,8.845.818,3.536,1.044,6.88,2.056,10.217a9.919,9.919,0,0,1,1.006,2.55,43.579,43.579,0,0,0,2.845,10.211c1.4,2.94,1.824,6.085,3.227,9.026a64.794,64.794,0,0,1,3.412,7.646c2.608,5.686,5.8,10.775,9,16.259a185.607,185.607,0,0,0,12.747,17.21A153.9,153.9,0,0,0,60.7,275.729c2.971,2.14,5.745,4.083,8.715,6.221.4.39.986.188,1.383.579,8.516,6.029,17.607,10.279,26.893,14.332A211.056,211.056,0,0,1,67.7,243.189c-.606-1.766-1.411-3.728-2.016-5.5a212.419,212.419,0,0,1-8.8-38.7,185.435,185.435,0,0,1-1.362-20.853c-.105-12.2,1.176-23.432,3.034-36.046.188-.984-.211-1.77-.023-2.756a145.417,145.417,0,0,0-.31-35.819c0-.393.188-.984.184-1.38-.431-4.326-1.055-8.061-1.879-12.384-.616-2.947-1.229-5.5-1.646-8.252-.2-.59-.4-.784-.6-1.373a176.334,176.334,0,0,0-9.911-30.815A194.6,194.6,0,0,1,63.39,155.047c.071,8.267-.448,16.34.609,24.794,0,.395-.187.987-.184,1.38A207.762,207.762,0,0,0,69.4,212.468a208.027,208.027,0,0,0,16.7,41.779c.4.784,1.195,1.565,1.594,2.348,7,13.128,15.762,24.467,25.11,35.605.955-3.354.732-6.3,1.291-10.05a47.813,47.813,0,0,0,.9-9.26c.175-2.559.547-4.924.92-7.29,1.98-21.471,3.383-41.167,4.38-62.433.63-18.114,1.47-34.852.724-52.757-.007-.787-.408-1.571-.415-2.358-.536-16.53-3.426-31.857-8.089-47.76C107.052,82.822,98.852,67.737,87.9,53.071L86.708,51.9A139.379,139.379,0,0,0,64.265,28.672Z" fill="#2cf19a"/>
              </g>
            </g>
            <g id="Group_6" data-name="Group 6" transform="translate(33.399 247.161)">
              <g id="Group_5" data-name="Group 5" transform="translate(0 0)">
                <path id="Path_3" data-name="Path 3" d="M25.142,56.309c-1.016-1.329-2.366-2.655-3.381-3.985A120.962,120.962,0,0,1,11.087,36.858,152.876,152.876,0,0,1,0,12.36c10.02-2.093,19.881-3.351,30.576-4.78C46.621,5.767,61.33,4.3,77.211,2.659,97.773.974,116.666-.694,137.253.3c.334,0,.672.329,1.006.326l7.532.436c2.514.481,5.024.626,7.539,1.107,3.017.642,5.861.786,8.713,1.6a8.406,8.406,0,0,0,2.182.818,36.966,36.966,0,0,1,8.717,2.267c2.52,1.15,5.2,1.46,7.719,2.611a55.262,55.262,0,0,0,6.549,2.786c4.871,2.133,9.244,4.771,13.95,7.408a157.384,157.384,0,0,1,14.814,10.58,130.765,130.765,0,0,1,19.073,19.409c1.863,2.5,3.556,4.821,5.418,7.315.338.332.176.836.512,1.167,5.25,7.149,8.995,14.812,12.576,22.646a179.358,179.358,0,0,0-46.055-24.7c-1.511-.489-3.188-1.144-4.7-1.633a180.6,180.6,0,0,0-33.019-6.908,157.411,157.411,0,0,0-17.742-.849c-10.372.089-19.9,1.343-30.59,3.109-.835.175-1.506-.155-2.341.02a123.667,123.667,0,0,1-30.448.263c-.334,0-.835.176-1.17.176-3.683-.3-6.866-.776-10.552-1.414-2.513-.48-4.693-.963-7.038-1.278-.5-.163-.672-.329-1.175-.492A149.858,149.858,0,0,1,42.391,39.1a165.407,165.407,0,0,0,90.136,14.611c7.026-.06,13.881-.622,21.081.152.335,0,.835-.174,1.169-.176a176.545,176.545,0,0,1,26.639,4.288,176.945,176.945,0,0,1,35.754,13.576c.673.329,1.346.993,2.018,1.321,11.259,5.759,21.026,13.035,30.63,20.815-2.836.861-5.349.715-8.522,1.245a40.515,40.515,0,0,1-7.856.9c-2.174.186-4.178.538-6.183.891-18.219,2-34.937,3.48-53,4.642-15.384.8-29.6,1.761-44.825,1.391-.668.006-1.34-.323-2.01-.316a159.819,159.819,0,0,1-40.708-6.172,131.379,131.379,0,0,1-40.5-20.227l-1.013-1A118.227,118.227,0,0,1,25.141,56.312Z" fill="#23f389"/>
              </g>
            </g>
            <g id="Group_8" data-name="Group 8" transform="translate(229.603 40.647)">
              <g id="Group_7" data-name="Group 7" transform="translate(0 0)">
                <path id="Path_4" data-name="Path 4" d="M46.431,20.721c-1.144-.844-2.291-1.972-3.437-2.815a102.742,102.742,0,0,0-13.3-8.844A130,130,0,0,0,8.71,0C7.077,8.546,6.154,16.945,5.095,26.055,3.791,39.719,2.762,52.24,1.6,65.762.471,83.266-.669,99.342.475,116.824c0,.284.291.567.293.851q.241,3.2.482,6.4c.446,2.129.606,4.261,1.051,6.39.591,2.554.754,4.971,1.487,7.381a7.193,7.193,0,0,1,.726,1.842,31.436,31.436,0,0,0,2.054,7.376c1.014,2.125,1.319,4.4,2.332,6.521a46.808,46.808,0,0,1,2.464,5.525c1.885,4.108,4.192,7.785,6.5,11.747a134.055,134.055,0,0,0,9.209,12.435,111.367,111.367,0,0,0,16.776,15.924c2.148,1.546,4.151,2.95,6.3,4.5.286.281.711.136,1,.418,6.151,4.355,12.721,7.427,19.431,10.354a152.448,152.448,0,0,1-21.668-38.777c-.437-1.276-1.02-2.693-1.456-3.968A153.367,153.367,0,0,1,41.1,143.776a133.9,133.9,0,0,1-.984-15.066,164.222,164.222,0,0,1,2.193-26.045c.135-.711-.154-1.278-.017-1.99a105.145,105.145,0,0,0-.224-25.881c0-.284.135-.712.133-1-.311-3.126-.762-5.825-1.356-8.948-.446-2.13-.888-3.974-1.19-5.963-.146-.425-.289-.565-.435-.991a127.4,127.4,0,0,0-7.162-22.265A140.6,140.6,0,0,1,45.8,112.021c.052,5.973-.324,11.807.441,17.914,0,.284-.137.712-.134,1a150.1,150.1,0,0,0,4.035,22.576,150.434,150.434,0,0,0,12.065,30.186c.29.567.864,1.131,1.152,1.7,5.062,9.485,11.388,17.68,18.143,25.724.689-2.423.527-4.554.932-7.26a34.457,34.457,0,0,0,.654-6.69c.125-1.849.4-3.558.665-5.267,1.429-15.512,2.444-29.743,3.163-45.107.455-13.087,1.061-25.181.523-38.117-.006-.568-.295-1.134-.3-1.7a135.883,135.883,0,0,0-5.845-34.5A111.649,111.649,0,0,0,63.505,38.346l-.86-.845A100.622,100.622,0,0,0,46.429,20.718Z" fill="#2cf19a"/>
              </g>
            </g>
            <g id="Group_10" data-name="Group 10" transform="translate(23.58 167.466)">
              <g id="Group_9" data-name="Group 9" transform="translate(0 0)">
                <path id="Path_5" data-name="Path 5" d="M17.833,39.94c-.72-.944-1.678-1.885-2.4-2.828a85.752,85.752,0,0,1-7.571-10.97A108.4,108.4,0,0,1,0,8.767C7.107,7.282,14.1,6.391,21.686,5.376,33.067,4.091,43.5,3.051,54.761,1.886,69.347.691,82.745-.493,97.347.211c.237,0,.476.234.714.231L103.4.752c1.782.341,3.562.445,5.346.785,2.139.457,4.158.557,6.18,1.133a5.932,5.932,0,0,0,1.546.581,26.286,26.286,0,0,1,6.186,1.607c1.786.815,3.687,1.036,5.474,1.852a39.148,39.148,0,0,0,4.645,1.976c3.455,1.511,6.556,3.385,9.9,5.254a112.1,112.1,0,0,1,10.507,7.5,92.756,92.756,0,0,1,13.529,13.766c1.321,1.768,2.521,3.419,3.842,5.188.24.236.124.592.364.828a88.833,88.833,0,0,1,8.92,16.063A127.25,127.25,0,0,0,147.172,39.77c-1.072-.347-2.262-.811-3.333-1.158a128.219,128.219,0,0,0-23.419-4.9,111.964,111.964,0,0,0-12.583-.6,137.114,137.114,0,0,0-21.7,2.2c-.591.125-1.068-.108-1.66.016a87.631,87.631,0,0,1-21.595.187c-.238,0-.593.124-.829.126-2.612-.215-4.871-.551-7.484-1-1.783-.341-3.329-.683-4.991-.906-.357-.116-.476-.233-.834-.349a106.389,106.389,0,0,1-18.679-5.652A117.33,117.33,0,0,0,94,38.1c4.983-.044,9.845-.442,14.953.106.238,0,.592-.124.83-.125a125.282,125.282,0,0,1,18.894,3.039,125.505,125.505,0,0,1,25.358,9.631c.477.234.956.7,1.432.937,7.986,4.083,14.913,9.244,21.726,14.762-2.013.611-3.793.508-6.045.884a28.622,28.622,0,0,1-5.571.641c-1.541.132-2.964.382-4.385.633-12.922,1.417-24.779,2.47-37.588,3.292-10.912.568-20.993,1.249-31.793.987-.475.005-.951-.228-1.426-.224a113.4,113.4,0,0,1-28.873-4.379A93.2,93.2,0,0,1,32.784,53.934q-.358-.354-.717-.706A83.928,83.928,0,0,1,17.832,39.942Z" fill="#2cf19a"/>
              </g>
            </g>
            <g id="Group_12" data-name="Group 12" transform="translate(163.565 27.64)">
              <g id="Group_11" data-name="Group 11" transform="translate(0 0)">
                <path id="Path_6" data-name="Path 6" d="M32.932,14.7c-.812-.6-1.626-1.4-2.438-2a72.956,72.956,0,0,0-9.435-6.273A92.156,92.156,0,0,0,6.176,0C5.018,6.062,4.364,12.018,3.613,18.48c-.925,9.691-1.652,18.573-2.48,28.162C.334,59.056-.475,70.46.338,82.859c0,.2.205.4.207.6Q.715,85.731.887,88c.316,1.511.43,3.023.745,4.531.419,1.812.535,3.526,1.054,5.237A5.152,5.152,0,0,1,3.2,99.076a22.278,22.278,0,0,0,1.458,5.231c.719,1.508.934,3.119,1.652,4.625a33.22,33.22,0,0,1,1.748,3.918c1.336,2.915,2.973,5.523,4.61,8.333A95.142,95.142,0,0,0,19.2,130,78.851,78.851,0,0,0,31.1,141.3c1.523,1.1,2.944,2.092,4.464,3.189.2.2.5.1.708.3a75.584,75.584,0,0,0,13.782,7.346,108.127,108.127,0,0,1-15.368-27.5c-.311-.9-.723-1.91-1.033-2.814a108.86,108.86,0,0,1-4.509-19.831,94.922,94.922,0,0,1-.7-10.685A116.347,116.347,0,0,1,30,72.822c.1-.5-.109-.907-.012-1.411a74.462,74.462,0,0,0-.159-18.356c0-.2.1-.5.094-.707-.221-2.216-.539-4.131-.962-6.346-.317-1.512-.63-2.819-.844-4.229-.1-.3-.2-.4-.309-.7a90.315,90.315,0,0,0-5.079-15.791,99.728,99.728,0,0,1,9.749,54.179c.035,4.236-.23,8.373.312,12.706,0,.2-.1.505-.095.707a106.615,106.615,0,0,0,2.862,16.013,106.7,106.7,0,0,0,8.557,21.409c.2.4.612.8.817,1.2A106.227,106.227,0,0,0,57.8,149.742a39.656,39.656,0,0,0,.661-5.15,24.349,24.349,0,0,0,.463-4.745c.09-1.313.281-2.524.472-3.737,1.015-11,1.735-21.1,2.245-31.994.323-9.281.753-17.858.371-27.034,0-.4-.209-.8-.213-1.208A96.335,96.335,0,0,0,57.655,51.4,79.166,79.166,0,0,0,45.04,27.2l-.611-.6a71.366,71.366,0,0,0-11.5-11.9Z" fill="#2cf19a"/>
              </g>
            </g>
            <g id="Group_14" data-name="Group 14" transform="translate(0 107.926)">
              <g id="Group_13" data-name="Group 13" transform="translate(0 0)">
                <path id="Path_7" data-name="Path 7" d="M12.884,28.857c-.521-.681-1.212-1.361-1.732-2.043a62.055,62.055,0,0,1-5.47-7.926A78.339,78.339,0,0,1,0,6.335C5.135,5.263,10.188,4.618,15.668,3.883c8.222-.927,15.761-1.679,23.9-2.521C50.1.5,59.784-.357,70.334.153c.171,0,.345.168.516.167q1.93.11,3.86.224c1.288.246,2.574.321,3.864.566,1.547.33,3,.4,4.464.818a4.292,4.292,0,0,0,1.117.42,19.02,19.02,0,0,1,4.469,1.159c1.291.59,2.664.749,3.954,1.339a28.4,28.4,0,0,0,3.358,1.428c2.5,1.093,4.736,2.444,7.148,3.8a80.443,80.443,0,0,1,7.592,5.422,66.967,66.967,0,0,1,9.775,9.945c.955,1.279,1.822,2.471,2.777,3.748.172.17.088.429.262.6a64.106,64.106,0,0,1,6.444,11.6,91.93,91.93,0,0,0-23.6-12.656c-.773-.251-1.634-.586-2.408-.837a92.558,92.558,0,0,0-16.92-3.54,80.735,80.735,0,0,0-9.091-.436,98.927,98.927,0,0,0-15.676,1.594c-.429.089-.773-.079-1.2.01a63.308,63.308,0,0,1-15.6.135c-.171,0-.428.089-.6.091-1.887-.155-3.518-.4-5.407-.725-1.288-.246-2.406-.492-3.606-.654-.259-.083-.345-.168-.6-.251a76.81,76.81,0,0,1-13.494-4.084,84.752,84.752,0,0,0,46.188,7.487,91.327,91.327,0,0,1,10.8.078c.173,0,.428-.089.6-.09a90.368,90.368,0,0,1,13.651,2.2,90.546,90.546,0,0,1,18.321,6.957c.345.168.691.508,1.035.677A90.1,90.1,0,0,1,128.019,48a33.611,33.611,0,0,1-4.367.637,20.666,20.666,0,0,1-4.026.464c-1.114.1-2.14.275-3.168.457-9.336,1.023-17.9,1.784-27.157,2.378-7.884.411-15.166.9-22.97.713-.344,0-.687-.166-1.03-.162a82.067,82.067,0,0,1-20.861-3.163,67.344,67.344,0,0,1-20.75-10.365l-.52-.51a60.58,60.58,0,0,1-10.286-9.6Z" fill="#2cf19a"/>
              </g>
            </g>
            <g id="Group_16" data-name="Group 16" transform="translate(103.061 0)">
              <g id="Group_15" data-name="Group 15" transform="translate(0 0)">
                <path id="Path_8" data-name="Path 8" d="M23.793,10.619c-.586-.433-1.174-1.01-1.762-1.441a52.613,52.613,0,0,0-6.816-4.534A66.6,66.6,0,0,0,4.463,0C3.626,4.38,3.153,8.684,2.611,13.352c-.668,7-1.2,13.419-1.791,20.348C.241,42.668-.344,50.907.244,59.866c0,.145.149.29.15.435q.124,1.64.246,3.277c.228,1.09.31,2.184.538,3.275.3,1.309.386,2.547.762,3.783a3.631,3.631,0,0,1,.372.944,16.164,16.164,0,0,0,1.055,3.78c.519,1.09.676,2.254,1.2,3.341a24.022,24.022,0,0,1,1.262,2.832c.966,2.105,2.148,3.989,3.331,6.02a68.738,68.738,0,0,0,4.719,6.372,56.948,56.948,0,0,0,8.6,8.16c1.1.792,2.126,1.511,3.227,2.3.147.144.365.07.512.214a54.575,54.575,0,0,0,9.956,5.307,78.132,78.132,0,0,1-11.1-19.871c-.224-.654-.523-1.38-.746-2.034A78.661,78.661,0,0,1,21.06,73.678a68.583,68.583,0,0,1-.5-7.72,83.756,83.756,0,0,1,1.125-13.345c.07-.365-.079-.656-.009-1.019a53.8,53.8,0,0,0-.116-13.262c0-.146.07-.365.07-.511-.16-1.6-.39-2.985-.7-4.584-.228-1.092-.457-2.039-.609-3.056-.075-.218-.147-.29-.223-.508a65.36,65.36,0,0,0-3.669-11.409,72.057,72.057,0,0,1,7.043,39.145,77.327,77.327,0,0,0,.225,9.18c0,.146-.07.365-.07.511a70.018,70.018,0,0,0,8.25,27.037c.148.291.442.579.59.869a76.674,76.674,0,0,0,9.3,13.181,29.108,29.108,0,0,0,.479-3.72,17.693,17.693,0,0,0,.334-3.428c.065-.949.2-1.823.341-2.7.732-7.95,1.252-15.241,1.622-23.114.233-6.707.544-12.9.268-19.533,0-.292-.151-.582-.154-.873a69.62,69.62,0,0,0-2.995-17.682,57.211,57.211,0,0,0-9.115-17.483l-.441-.433A51.561,51.561,0,0,0,23.793,10.619Z" fill="#2cf19a"/>
              </g>
            </g>
          </g>
        </g>
      </g>
    </g>
    <path id="Path_18" data-name="Path 18" d="M68.142-83.654-5.54-196.116H48.2l41.55,73.4,44.043-73.4h51.245L111.354-83.654V0H68.142Zm298.052-14.4q0-23.545,7.895-42.658a93.559,93.559,0,0,1,22.021-32.548A97.015,97.015,0,0,1,429.627-193.9a120.822,120.822,0,0,1,42.381-7.2,120.822,120.822,0,0,1,42.381,7.2,97.015,97.015,0,0,1,33.517,20.636,93.559,93.559,0,0,1,22.021,32.548q7.895,19.113,7.895,42.658T569.927-55.4a93.559,93.559,0,0,1-22.021,32.548A97.016,97.016,0,0,1,514.389-2.216a120.822,120.822,0,0,1-42.381,7.2,120.822,120.822,0,0,1-42.381-7.2A97.015,97.015,0,0,1,396.11-22.853,93.559,93.559,0,0,1,374.089-55.4Q366.194-74.513,366.194-98.058Zm44.874,0a71.929,71.929,0,0,0,4.294,25.346,58.054,58.054,0,0,0,12.326,19.944A56.261,56.261,0,0,0,446.94-39.611,64.18,64.18,0,0,0,472.008-34.9a64.18,64.18,0,0,0,25.069-4.709,56.261,56.261,0,0,0,19.251-13.158,58.054,58.054,0,0,0,12.327-19.944,71.929,71.929,0,0,0,4.293-25.346,72.253,72.253,0,0,0-4.293-25.207,57.794,57.794,0,0,0-12.327-20.082,56.261,56.261,0,0,0-19.251-13.158,64.18,64.18,0,0,0-25.069-4.709,64.18,64.18,0,0,0-25.068,4.709,56.261,56.261,0,0,0-19.252,13.158,57.794,57.794,0,0,0-12.326,20.082A72.253,72.253,0,0,0,411.068-98.058ZM949.833-75.621a94.588,94.588,0,0,1-5.263,32.132A70.706,70.706,0,0,1,928.92-18a71.69,71.69,0,0,1-25.9,16.9q-15.512,6.094-35.733,6.094-20.5,0-36.01-6.094a71.689,71.689,0,0,1-25.9-16.9,70.707,70.707,0,0,1-15.651-25.484,94.588,94.588,0,0,1-5.263-32.132V-196.116h43.212V-77.283a47.751,47.751,0,0,0,2.909,16.9,40.369,40.369,0,0,0,8.172,13.434,37.1,37.1,0,0,0,12.6,8.864A39.574,39.574,0,0,0,867.287-34.9a38.6,38.6,0,0,0,15.789-3.186,37.465,37.465,0,0,0,12.465-8.864,40.369,40.369,0,0,0,8.172-13.434,47.751,47.751,0,0,0,2.909-16.9V-196.116h43.212ZM1204.95-157.89H1149v-38.226h155.12v38.226h-55.954V0H1204.95Zm298.329-38.226h43.212v73.128h83.931v-73.128h43.212V0h-43.212V-84.762h-83.931V0h-43.212Zm646.241,0h43.212V0H2149.52Zm259.826,0h58.724l83.377,136.284H2552V-196.116h43.212V0h-56.508l-85.593-139.608h-.554V0h-43.212Z" transform="translate(-3616 8000)" fill="url(#linear-gradient-2)"/>
    <path id="Path_19" data-name="Path 19" d="M70.027-181.074H3.223v-26.37H164.959v26.37h-66.8V0H70.027Zm130.385-26.37h72.957q19.924,0,32.816,5.421t20.363,13.771a46.912,46.912,0,0,1,10.4,18.752,73.929,73.929,0,0,1,2.93,20.07,53.461,53.461,0,0,1-3.516,19.191,54.238,54.238,0,0,1-10.109,16.7,57.73,57.73,0,0,1-16.115,12.6,56.1,56.1,0,0,1-21.242,6.3L347.791,0h-35.16l-52.74-91.416H228.54V0H200.412Zm28.128,91.416h36.918a100.531,100.531,0,0,0,16.261-1.318,43.693,43.693,0,0,0,14.357-4.835,26.445,26.445,0,0,0,10.109-10.109q3.809-6.593,3.809-17.14t-3.809-17.141a26.445,26.445,0,0,0-10.109-10.109,43.692,43.692,0,0,0-14.357-4.834,100.529,100.529,0,0,0-16.261-1.319H228.54Zm221.508-91.416h25.491L564.318,0H531.5L510.7-51.275H411.958L391.448,0H358.632Zm50.4,131.557-38.676-95.225h-.586L421.92-75.887Zm96.4-131.557h36.918L748.029-36.918h.586V-207.444h28.128V0H741L625.555-170.526h-.586V0H596.841ZM841.789-43.364a46.213,46.213,0,0,0,19.484,16.848,58.28,58.28,0,0,0,24.466,5.42,49.813,49.813,0,0,0,14.357-2.2,43.615,43.615,0,0,0,13.331-6.593,35.955,35.955,0,0,0,9.816-10.841,28.82,28.82,0,0,0,3.809-14.943q0-12.013-7.618-18.312a65.776,65.776,0,0,0-18.9-10.548q-11.28-4.248-24.612-8.2a100.087,100.087,0,0,1-24.612-10.987,60.181,60.181,0,0,1-18.9-18.9Q824.8-134.487,824.8-154.7a53.838,53.838,0,0,1,3.956-19.338A53.837,53.837,0,0,1,841.2-192.794,68.71,68.71,0,0,1,863.031-207q13.332-5.714,32.083-5.714a111.924,111.924,0,0,1,32.523,4.688q15.529,4.688,27.249,19.045l-22.854,20.8a37.928,37.928,0,0,0-14.943-13.185,47.29,47.29,0,0,0-21.975-4.981q-11.72,0-19.484,3.076a35.013,35.013,0,0,0-12.452,7.911,27.95,27.95,0,0,0-6.593,10.4,31.882,31.882,0,0,0-1.9,10.255q0,13.185,7.618,20.217a59.166,59.166,0,0,0,18.9,11.427,228.128,228.128,0,0,0,24.612,7.911,105.33,105.33,0,0,1,24.612,9.816,57.208,57.208,0,0,1,18.9,16.994q7.618,10.695,7.618,29.446a61.981,61.981,0,0,1-5.714,26.956A59.832,59.832,0,0,1,935.842-11.72,68.247,68.247,0,0,1,912.988.879,88.383,88.383,0,0,1,884.86,5.274a102.3,102.3,0,0,1-37.8-7.032A62.149,62.149,0,0,1,818.642-23.44Zm162.322-164.08H1134.5v26.37H1032.239v65.046h95.225v26.37h-95.225V0h-28.128ZM1273.085,5.274a111.826,111.826,0,0,1-43.657-8.35,101.673,101.673,0,0,1-34.134-23,106.308,106.308,0,0,1-22.268-34.574,113.8,113.8,0,0,1-8.057-43.071,113.8,113.8,0,0,1,8.057-43.071,106.309,106.309,0,0,1,22.268-34.574,101.672,101.672,0,0,1,34.134-23,111.826,111.826,0,0,1,43.657-8.351,111.826,111.826,0,0,1,43.657,8.351,101.672,101.672,0,0,1,34.134,23,106.309,106.309,0,0,1,22.268,34.574,113.8,113.8,0,0,1,8.057,43.071,113.8,113.8,0,0,1-8.057,43.071,106.308,106.308,0,0,1-22.268,34.574,101.673,101.673,0,0,1-34.134,23A111.826,111.826,0,0,1,1273.085,5.274Zm0-26.37a76.359,76.359,0,0,0,32.23-6.593,76.376,76.376,0,0,0,24.612-17.727,78.164,78.164,0,0,0,15.822-26.223,91.95,91.95,0,0,0,5.567-32.084,91.95,91.95,0,0,0-5.567-32.083,78.164,78.164,0,0,0-15.822-26.223,76.376,76.376,0,0,0-24.612-17.727,76.359,76.359,0,0,0-32.23-6.592,76.358,76.358,0,0,0-32.23,6.592,76.376,76.376,0,0,0-24.612,17.727,78.164,78.164,0,0,0-15.822,26.223,91.95,91.95,0,0,0-5.567,32.083,91.95,91.95,0,0,0,5.567,32.084,78.164,78.164,0,0,0,15.822,26.223,76.376,76.376,0,0,0,24.612,17.727A76.358,76.358,0,0,0,1273.085-21.1ZM1427.2-207.444h72.957q19.924,0,32.816,5.421t20.364,13.771a46.911,46.911,0,0,1,10.4,18.752,73.928,73.928,0,0,1,2.93,20.07,53.461,53.461,0,0,1-3.516,19.191,54.236,54.236,0,0,1-10.109,16.7,57.728,57.728,0,0,1-16.115,12.6,56.1,56.1,0,0,1-21.242,6.3L1574.582,0h-35.16l-52.74-91.416h-31.351V0H1427.2Zm28.128,91.416h36.918a100.531,100.531,0,0,0,16.261-1.318,43.693,43.693,0,0,0,14.357-4.835,26.446,26.446,0,0,0,10.109-10.109q3.809-6.593,3.809-17.14t-3.809-17.141a26.446,26.446,0,0,0-10.109-10.109,43.692,43.692,0,0,0-14.357-4.834,100.529,100.529,0,0,0-16.261-1.319h-36.918Zm154.411-91.416h41.9L1717.566-50.4h1.172l65.339-157.048h41.9V0h-28.128V-170.526h-.586L1727.235,0h-18.752l-70.027-170.526h-.586V0h-28.128Zm338.122,0h25.491L2062.134,0h-32.816l-20.8-51.275h-98.741L1889.264,0h-32.816Zm50.4,131.557-38.676-95.225H1959l-39.262,95.225Zm112.8-105.187h-66.8v-26.37H2206v26.37h-66.8V0h-28.128Zm130.385-26.37h28.128V0H2241.45ZM2423.7,5.274a111.826,111.826,0,0,1-43.657-8.35,101.672,101.672,0,0,1-34.135-23,106.308,106.308,0,0,1-22.268-34.574,113.794,113.794,0,0,1-8.058-43.071,113.794,113.794,0,0,1,8.058-43.071,106.308,106.308,0,0,1,22.268-34.574,101.671,101.671,0,0,1,34.135-23,111.826,111.826,0,0,1,43.657-8.351,111.825,111.825,0,0,1,43.657,8.351,101.671,101.671,0,0,1,34.135,23,106.313,106.313,0,0,1,22.268,34.574,113.8,113.8,0,0,1,8.057,43.071,113.8,113.8,0,0,1-8.057,43.071,106.312,106.312,0,0,1-22.268,34.574,101.672,101.672,0,0,1-34.135,23A111.825,111.825,0,0,1,2423.7,5.274Zm0-26.37a76.358,76.358,0,0,0,32.23-6.593,76.374,76.374,0,0,0,24.612-17.727,78.162,78.162,0,0,0,15.822-26.223,91.953,91.953,0,0,0,5.567-32.084,91.953,91.953,0,0,0-5.567-32.083,78.162,78.162,0,0,0-15.822-26.223,76.374,76.374,0,0,0-24.612-17.727,76.358,76.358,0,0,0-32.23-6.592,76.358,76.358,0,0,0-32.23,6.592,76.377,76.377,0,0,0-24.612,17.727,78.162,78.162,0,0,0-15.822,26.223,91.948,91.948,0,0,0-5.567,32.083,91.948,91.948,0,0,0,5.567,32.084,78.162,78.162,0,0,0,15.822,26.223,76.377,76.377,0,0,0,24.612,17.727A76.358,76.358,0,0,0,2423.7-21.1Zm154.118-186.348h36.918L2729-36.918h.586V-207.444h28.128V0H2721.97L2606.528-170.526h-.586V0h-28.128Z" transform="translate(-3704 8550)" fill="url(#linear-gradient-3)"/>
    <path id="Path_20" data-name="Path 20" d="M0,0H2651" transform="translate(-3632.5 8175.5)" fill="none" stroke="#9ce6d9" stroke-width="10"/>
  </g>
</svg>
